<svg width="16" height="13" viewBox="0 0 16 13" fill="none" xmlns="http://www.w3.org/2000/svg">
<path d="M12.7334 12.5999L10.4001 10.2999C10.0112 10.4221 9.61677 10.5138 9.21676 10.5749C8.81676 10.636 8.41121 10.6666 8.0001 10.6666C6.51121 10.6666 5.1501 10.2666 3.91676 9.46657C2.68343 8.66657 1.71676 7.61101 1.01676 6.2999C0.961209 6.1999 0.919542 6.09712 0.891764 5.99157C0.863987 5.88601 0.850098 5.77768 0.850098 5.66657C0.850098 5.55546 0.863987 5.44712 0.891764 5.34157C0.919542 5.23601 0.961209 5.13324 1.01676 5.03324C1.26121 4.5999 1.52232 4.17768 1.8001 3.76657C2.07788 3.35546 2.4001 2.98879 2.76676 2.66657L1.38343 1.26657C1.26121 1.14435 1.2001 0.991569 1.2001 0.808236C1.2001 0.624902 1.26676 0.466569 1.4001 0.333236C1.52232 0.211013 1.67788 0.149902 1.86676 0.149902C2.05565 0.149902 2.21121 0.211013 2.33343 0.333236L13.6668 11.6666C13.789 11.7888 13.8529 11.9416 13.8584 12.1249C13.864 12.3082 13.8001 12.4666 13.6668 12.5999C13.5445 12.7221 13.389 12.7832 13.2001 12.7832C13.0112 12.7832 12.8557 12.7221 12.7334 12.5999ZM8.0001 8.66657C8.12232 8.66657 8.23899 8.66101 8.3501 8.6499C8.46121 8.63879 8.57232 8.61657 8.68343 8.58324L5.08343 4.98324C5.0501 5.09435 5.02788 5.20546 5.01676 5.31657C5.00565 5.42768 5.0001 5.54435 5.0001 5.66657C5.0001 6.4999 5.29176 7.20824 5.8751 7.79157C6.45843 8.3749 7.16676 8.66657 8.0001 8.66657ZM8.0001 0.666569C9.48899 0.666569 10.8529 1.06935 12.0918 1.8749C13.3307 2.68046 14.3001 3.73879 15.0001 5.0499C15.0557 5.13879 15.0973 5.23601 15.1251 5.34157C15.1529 5.44712 15.1668 5.55546 15.1668 5.66657C15.1668 5.77768 15.1557 5.88601 15.1334 5.99157C15.1112 6.09712 15.0723 6.19435 15.0168 6.28324C14.8057 6.69435 14.5695 7.08324 14.3084 7.4499C14.0473 7.81657 13.7557 8.16101 13.4334 8.48324C13.2779 8.63879 13.0945 8.71101 12.8834 8.6999C12.6723 8.68879 12.489 8.60546 12.3334 8.4499L11.0001 7.11657C10.9223 7.03879 10.8723 6.94712 10.8501 6.84157C10.8279 6.73601 10.8334 6.62768 10.8668 6.51657C10.9112 6.37212 10.9445 6.23324 10.9668 6.0999C10.989 5.96657 11.0001 5.82212 11.0001 5.66657C11.0001 4.83324 10.7084 4.1249 10.1251 3.54157C9.54177 2.95824 8.83343 2.66657 8.0001 2.66657C7.84454 2.66657 7.7001 2.67768 7.56676 2.6999C7.43343 2.72212 7.29454 2.75546 7.1501 2.7999C7.03899 2.83324 6.92788 2.83879 6.81676 2.81657C6.70565 2.79435 6.61121 2.74435 6.53343 2.66657L5.98343 2.11657C5.77232 1.90546 5.70288 1.66101 5.7751 1.38324C5.84732 1.10546 6.02232 0.92768 6.3001 0.849902C6.57788 0.794347 6.85843 0.749902 7.14176 0.716569C7.4251 0.683236 7.71121 0.666569 8.0001 0.666569ZM9.31676 4.43324C9.43899 4.57768 9.54177 4.73601 9.6251 4.90824C9.70843 5.08046 9.76121 5.26101 9.78343 5.4499C9.79454 5.53879 9.76121 5.5999 9.68343 5.63324C9.60565 5.66657 9.53343 5.6499 9.46676 5.58324L8.1001 4.21657C8.03343 4.1499 8.01954 4.07768 8.05843 3.9999C8.09732 3.92212 8.16121 3.88324 8.2501 3.88324C8.46121 3.90546 8.65565 3.96379 8.83343 4.05824C9.01121 4.15268 9.17232 4.27768 9.31676 4.43324Z" fill="#F9F9F9"/>
</svg>
