<svg width="14" height="14" viewBox="0 0 14 14" fill="none" xmlns="http://www.w3.org/2000/svg">
<path d="M7 10.3335C7.18889 10.3335 7.34722 10.2696 7.475 10.1418C7.60278 10.0141 7.66667 9.85572 7.66667 9.66683V7.00016C7.66667 6.81127 7.60278 6.65294 7.475 6.52516C7.34722 6.39739 7.18889 6.3335 7 6.3335C6.81111 6.3335 6.65278 6.39739 6.525 6.52516C6.39722 6.65294 6.33333 6.81127 6.33333 7.00016V9.66683C6.33333 9.85572 6.39722 10.0141 6.525 10.1418C6.65278 10.2696 6.81111 10.3335 7 10.3335ZM7 5.00016C7.18889 5.00016 7.34722 4.93627 7.475 4.8085C7.60278 4.68072 7.66667 4.52239 7.66667 4.3335C7.66667 4.14461 7.60278 3.98627 7.475 3.8585C7.34722 3.73072 7.18889 3.66683 7 3.66683C6.81111 3.66683 6.65278 3.73072 6.525 3.8585C6.39722 3.98627 6.33333 4.14461 6.33333 4.3335C6.33333 4.52239 6.39722 4.68072 6.525 4.8085C6.65278 4.93627 6.81111 5.00016 7 5.00016ZM7 13.6668C6.07778 13.6668 5.21111 13.4918 4.4 13.1418C3.58889 12.7918 2.88333 12.3168 2.28333 11.7168C1.68333 11.1168 1.20833 10.4113 0.858332 9.60016C0.508332 8.78905 0.333332 7.92239 0.333332 7.00016C0.333332 6.07794 0.508332 5.21127 0.858332 4.40016C1.20833 3.58905 1.68333 2.8835 2.28333 2.2835C2.88333 1.6835 3.58889 1.2085 4.4 0.858496C5.21111 0.508496 6.07778 0.333496 7 0.333496C7.92222 0.333496 8.78889 0.508496 9.6 0.858496C10.4111 1.2085 11.1167 1.6835 11.7167 2.2835C12.3167 2.8835 12.7917 3.58905 13.1417 4.40016C13.4917 5.21127 13.6667 6.07794 13.6667 7.00016C13.6667 7.92239 13.4917 8.78905 13.1417 9.60016C12.7917 10.4113 12.3167 11.1168 11.7167 11.7168C11.1167 12.3168 10.4111 12.7918 9.6 13.1418C8.78889 13.4918 7.92222 13.6668 7 13.6668Z" fill="#F9F9F9"/>
</svg>
