<svg width="16" height="12" viewBox="0 0 16 12" fill="none" xmlns="http://www.w3.org/2000/svg">
<path d="M3.85 7.00001L6.7 9.85001C6.9 10.05 6.99583 10.2833 6.9875 10.55C6.97917 10.8167 6.88334 11.05 6.7 11.25C6.5 11.45 6.2625 11.5542 5.9875 11.5625C5.7125 11.5708 5.475 11.475 5.275 11.275L0.700002 6.70001C0.500002 6.50001 0.400002 6.26668 0.400002 6.00001C0.400002 5.73335 0.500002 5.50001 0.700002 5.30001L5.275 0.725012C5.475 0.525012 5.7125 0.429178 5.9875 0.437512C6.2625 0.445845 6.5 0.550012 6.7 0.750012C6.88334 0.950012 6.97917 1.18335 6.9875 1.45001C6.99583 1.71668 6.9 1.95001 6.7 2.15001L3.85 5.00001H15C15.2833 5.00001 15.5208 5.09585 15.7125 5.28751C15.9042 5.47918 16 5.71668 16 6.00001C16 6.28335 15.9042 6.52085 15.7125 6.71251C15.5208 6.90418 15.2833 7.00001 15 7.00001H3.85Z" fill="#F9F9F9"/>
</svg>
