<svg width="12" height="12" viewBox="0 0 12 12" fill="none" xmlns="http://www.w3.org/2000/svg">
<path d="M6 6.93333L7.93333 8.86667C8.05556 8.98889 8.21111 9.05 8.4 9.05C8.58889 9.05 8.74444 8.98889 8.86667 8.86667C8.98889 8.74444 9.05 8.58889 9.05 8.4C9.05 8.21111 8.98889 8.05556 8.86667 7.93333L6.93333 6L8.86667 4.06667C8.98889 3.94444 9.05 3.78889 9.05 3.6C9.05 3.41111 8.98889 3.25556 8.86667 3.13333C8.74444 3.01111 8.58889 2.95 8.4 2.95C8.21111 2.95 8.05556 3.01111 7.93333 3.13333L6 5.06667L4.06667 3.13333C3.94444 3.01111 3.78889 2.95 3.6 2.95C3.41111 2.95 3.25556 3.01111 3.13333 3.13333C3.01111 3.25556 2.95 3.41111 2.95 3.6C2.95 3.78889 3.01111 3.94444 3.13333 4.06667L5.06667 6L3.13333 7.93333C3.01111 8.05556 2.95 8.21111 2.95 8.4C2.95 8.58889 3.01111 8.74444 3.13333 8.86667C3.25556 8.98889 3.41111 9.05 3.6 9.05C3.78889 9.05 3.94444 8.98889 4.06667 8.86667L6 6.93333ZM1.33333 12C0.966667 12 0.652778 11.8694 0.391667 11.6083C0.130556 11.3472 0 11.0333 0 10.6667V1.33333C0 0.966667 0.130556 0.652778 0.391667 0.391667C0.652778 0.130556 0.966667 0 1.33333 0H10.6667C11.0333 0 11.3472 0.130556 11.6083 0.391667C11.8694 0.652778 12 0.966667 12 1.33333V10.6667C12 11.0333 11.8694 11.3472 11.6083 11.6083C11.3472 11.8694 11.0333 12 10.6667 12H1.33333Z" fill="#F9F9F9"/>
</svg>
