<svg width="14" height="14" viewBox="0 0 14 14" fill="none" xmlns="http://www.w3.org/2000/svg">
<path d="M6.99992 7.66683C6.81103 7.66683 6.6527 7.60294 6.52492 7.47516C6.39714 7.34739 6.33325 7.18905 6.33325 7.00016C6.33325 6.81127 6.39714 6.65294 6.52492 6.52516C6.6527 6.39739 6.81103 6.3335 6.99992 6.3335C7.18881 6.3335 7.34714 6.39739 7.47492 6.52516C7.6027 6.65294 7.66659 6.81127 7.66659 7.00016C7.66659 7.18905 7.6027 7.34739 7.47492 7.47516C7.34714 7.60294 7.18881 7.66683 6.99992 7.66683ZM6.99992 13.6668C6.0777 13.6668 5.21103 13.4918 4.39992 13.1418C3.58881 12.7918 2.88325 12.3168 2.28325 11.7168C1.68325 11.1168 1.20825 10.4113 0.858252 9.60016C0.508252 8.78905 0.333252 7.92239 0.333252 7.00016C0.333252 6.07794 0.508252 5.21127 0.858252 4.40016C1.20825 3.58905 1.68325 2.8835 2.28325 2.2835C2.88325 1.6835 3.58881 1.2085 4.39992 0.858496C5.21103 0.508496 6.0777 0.333496 6.99992 0.333496C7.92214 0.333496 8.78881 0.508496 9.59992 0.858496C10.411 1.2085 11.1166 1.6835 11.7166 2.2835C12.3166 2.8835 12.7916 3.58905 13.1416 4.40016C13.4916 5.21127 13.6666 6.07794 13.6666 7.00016C13.6666 7.92239 13.4916 8.78905 13.1416 9.60016C12.7916 10.4113 12.3166 11.1168 11.7166 11.7168C11.1166 12.3168 10.411 12.7918 9.59992 13.1418C8.78881 13.4918 7.92214 13.6668 6.99992 13.6668ZM6.99992 12.3335C8.48881 12.3335 9.74992 11.8168 10.7833 10.7835C11.8166 9.75016 12.3333 8.48905 12.3333 7.00016C12.3333 5.51127 11.8166 4.25016 10.7833 3.21683C9.74992 2.1835 8.48881 1.66683 6.99992 1.66683C5.51103 1.66683 4.24992 2.1835 3.21659 3.21683C2.18325 4.25016 1.66659 5.51127 1.66659 7.00016C1.66659 8.48905 2.18325 9.75016 3.21659 10.7835C4.24992 11.8168 5.51103 12.3335 6.99992 12.3335ZM6.99992 12.3335C5.51103 12.3335 4.24992 11.8168 3.21659 10.7835C2.18325 9.75016 1.66659 8.48905 1.66659 7.00016C1.66659 5.51127 2.18325 4.25016 3.21659 3.21683C4.24992 2.1835 5.51103 1.66683 6.99992 1.66683C8.48881 1.66683 9.74992 2.1835 10.7833 3.21683C11.8166 4.25016 12.3333 5.51127 12.3333 7.00016C12.3333 8.48905 11.8166 9.75016 10.7833 10.7835C9.74992 11.8168 8.48881 12.3335 6.99992 12.3335ZM8.11659 8.4335C8.18325 8.40016 8.24436 8.35572 8.29992 8.30016C8.35547 8.24461 8.39992 8.1835 8.43325 8.11683L10.3833 3.95016C10.4388 3.83905 10.4249 3.74183 10.3416 3.6585C10.2583 3.57516 10.161 3.56127 10.0499 3.61683L5.88325 5.56683C5.81659 5.60016 5.75547 5.64461 5.69992 5.70016C5.64436 5.75572 5.59992 5.81683 5.56659 5.8835L3.61659 10.0502C3.56103 10.1613 3.57492 10.2585 3.65825 10.3418C3.74159 10.4252 3.83881 10.4391 3.94992 10.3835L8.11659 8.4335Z" fill="#F9F9F9"/>
</svg>
