<svg width="16" height="16" viewBox="0 0 16 16" fill="none" xmlns="http://www.w3.org/2000/svg">
<mask id="mask0_299_3328" style="mask-type:alpha" maskUnits="userSpaceOnUse" x="0" y="0" width="16" height="16">
<rect width="16" height="16" fill="#D9D9D9"/>
</mask>
<g mask="url(#mask0_299_3328)">
<path d="M2.66659 13.3332C2.29992 13.3332 1.98603 13.2026 1.72492 12.9415C1.46381 12.6804 1.33325 12.3665 1.33325 11.9998V3.99984C1.33325 3.63317 1.46381 3.31928 1.72492 3.05817C1.98603 2.79706 2.29992 2.6665 2.66659 2.6665H13.3333C13.6999 2.6665 14.0138 2.79706 14.2749 3.05817C14.536 3.31928 14.6666 3.63317 14.6666 3.99984V11.9998C14.6666 12.3665 14.536 12.6804 14.2749 12.9415C14.0138 13.2026 13.6999 13.3332 13.3333 13.3332H2.66659ZM7.99992 8.54984C8.05547 8.54984 8.11381 8.5415 8.17492 8.52484C8.23603 8.50817 8.29436 8.48317 8.34992 8.44984L13.0666 5.49984C13.1555 5.44428 13.2221 5.37484 13.2666 5.2915C13.311 5.20817 13.3333 5.1165 13.3333 5.0165C13.3333 4.79428 13.2388 4.62761 13.0499 4.5165C12.861 4.40539 12.6666 4.41095 12.4666 4.53317L7.99992 7.33317L3.53325 4.53317C3.33325 4.41095 3.13881 4.40817 2.94992 4.52484C2.76103 4.6415 2.66659 4.80539 2.66659 5.0165C2.66659 5.12761 2.68881 5.22484 2.73325 5.30817C2.7777 5.3915 2.84436 5.45539 2.93325 5.49984L7.64992 8.44984C7.70547 8.48317 7.76381 8.50817 7.82492 8.52484C7.88603 8.5415 7.94436 8.54984 7.99992 8.54984Z" fill="#F9F9F9"/>
</g>
</svg>
