<svg width="16" height="16" viewBox="0 0 16 16" fill="none" xmlns="http://www.w3.org/2000/svg">
<mask id="mask0_299_3296" style="mask-type:alpha" maskUnits="userSpaceOnUse" x="0" y="0" width="16" height="16">
<rect width="16" height="16" fill="#D9D9D9"/>
</mask>
<g mask="url(#mask0_299_3296)">
<path d="M4 14.6668C3.44444 14.6668 2.97222 14.4724 2.58333 14.0835C2.19444 13.6946 2 13.2224 2 12.6668V12.0002C2 11.6335 2.13056 11.3196 2.39167 11.0585C2.65278 10.7974 2.96667 10.6668 3.33333 10.6668H4V2.66683C4 2.30016 4.13056 1.98627 4.39167 1.72516C4.65278 1.46405 4.96667 1.3335 5.33333 1.3335H12.6667C13.0333 1.3335 13.3472 1.46405 13.6083 1.72516C13.8694 1.98627 14 2.30016 14 2.66683V12.6668C14 13.2224 13.8056 13.6946 13.4167 14.0835C13.0278 14.4724 12.5556 14.6668 12 14.6668H4ZM12 13.3335C12.1889 13.3335 12.3472 13.2696 12.475 13.1418C12.6028 13.0141 12.6667 12.8557 12.6667 12.6668V2.66683H5.33333V10.6668H10C10.3667 10.6668 10.6806 10.7974 10.9417 11.0585C11.2028 11.3196 11.3333 11.6335 11.3333 12.0002V12.6668C11.3333 12.8557 11.3972 13.0141 11.525 13.1418C11.6528 13.2696 11.8111 13.3335 12 13.3335ZM6.66667 6.00016C6.47778 6.00016 6.31944 5.93627 6.19167 5.8085C6.06389 5.68072 6 5.52239 6 5.3335C6 5.14461 6.06389 4.98627 6.19167 4.8585C6.31944 4.73072 6.47778 4.66683 6.66667 4.66683H11.3333C11.5222 4.66683 11.6806 4.73072 11.8083 4.8585C11.9361 4.98627 12 5.14461 12 5.3335C12 5.52239 11.9361 5.68072 11.8083 5.8085C11.6806 5.93627 11.5222 6.00016 11.3333 6.00016H6.66667ZM6.66667 8.00016C6.47778 8.00016 6.31944 7.93627 6.19167 7.8085C6.06389 7.68072 6 7.52239 6 7.3335C6 7.14461 6.06389 6.98627 6.19167 6.8585C6.31944 6.73072 6.47778 6.66683 6.66667 6.66683H11.3333C11.5222 6.66683 11.6806 6.73072 11.8083 6.8585C11.9361 6.98627 12 7.14461 12 7.3335C12 7.52239 11.9361 7.68072 11.8083 7.8085C11.6806 7.93627 11.5222 8.00016 11.3333 8.00016H6.66667Z" fill="#F9F9F9"/>
</g>
</svg>
