<svg width="16" height="16" viewBox="0 0 16 16" fill="none" xmlns="http://www.w3.org/2000/svg">
<mask id="mask0_337_2774" style="mask-type:alpha" maskUnits="userSpaceOnUse" x="0" y="0" width="16" height="16">
<rect width="16" height="16" fill="#D9D9D9"/>
</mask>
<g mask="url(#mask0_337_2774)">
<path d="M4 3.3335V2.66683C4 2.30016 4.13056 1.98627 4.39167 1.72516C4.65278 1.46405 4.96667 1.3335 5.33333 1.3335H10.6667C11.0333 1.3335 11.3472 1.46405 11.6083 1.72516C11.8694 1.98627 12 2.30016 12 2.66683V3.3335H4ZM8 10.3335C8.27778 10.3335 8.51389 10.2363 8.70833 10.0418C8.90278 9.84739 9 9.61127 9 9.3335C9 9.05572 8.90278 8.81961 8.70833 8.62516C8.51389 8.43072 8.27778 8.3335 8 8.3335C7.72222 8.3335 7.48611 8.43072 7.29167 8.62516C7.09722 8.81961 7 9.05572 7 9.3335C7 9.61127 7.09722 9.84739 7.29167 10.0418C7.48611 10.2363 7.72222 10.3335 8 10.3335ZM5.33333 13.3335V7.3335L4.21667 5.66683C4.13889 5.55572 4.08333 5.43905 4.05 5.31683C4.01667 5.19461 4 5.06683 4 4.9335V4.66683H12V4.9335C12 5.06683 11.9833 5.19461 11.95 5.31683C11.9167 5.43905 11.8611 5.55572 11.7833 5.66683L10.6667 7.3335V13.3335C10.6667 13.7002 10.5361 14.0141 10.275 14.2752C10.0139 14.5363 9.7 14.6668 9.33333 14.6668H6.66667C6.3 14.6668 5.98611 14.5363 5.725 14.2752C5.46389 14.0141 5.33333 13.7002 5.33333 13.3335Z" fill="#F9F9F9"/>
</g>
</svg>
