<svg width="12" height="12" viewBox="0 0 12 12" fill="none" xmlns="http://www.w3.org/2000/svg">
<path d="M6 9.51663L3.23333 11.1833C3.11111 11.2611 2.98333 11.2944 2.85 11.2833C2.71667 11.2722 2.6 11.2277 2.5 11.15C2.4 11.0722 2.32222 10.975 2.26667 10.8583C2.21111 10.7416 2.2 10.6111 2.23333 10.4666L2.96667 7.31663L0.516668 5.19997C0.405557 5.09997 0.336112 4.98608 0.308334 4.8583C0.280557 4.73052 0.28889 4.60552 0.333334 4.4833C0.377779 4.36108 0.444446 4.26108 0.533334 4.1833C0.622223 4.10552 0.744446 4.05552 0.900001 4.0333L4.13333 3.74997L5.38334 0.783301C5.43889 0.649967 5.525 0.549967 5.64167 0.483301C5.75834 0.416634 5.87778 0.383301 6 0.383301C6.12222 0.383301 6.24167 0.416634 6.35834 0.483301C6.475 0.549967 6.56111 0.649967 6.61667 0.783301L7.86667 3.74997L11.1 4.0333C11.2556 4.05552 11.3778 4.10552 11.4667 4.1833C11.5556 4.26108 11.6222 4.36108 11.6667 4.4833C11.7111 4.60552 11.7194 4.73052 11.6917 4.8583C11.6639 4.98608 11.5944 5.09997 11.4833 5.19997L9.03333 7.31663L9.76667 10.4666C9.8 10.6111 9.78889 10.7416 9.73334 10.8583C9.67778 10.975 9.6 11.0722 9.5 11.15C9.4 11.2277 9.28333 11.2722 9.15 11.2833C9.01667 11.2944 8.88889 11.2611 8.76667 11.1833L6 9.51663Z" fill="#F9F9F9"/>
</svg>
