<svg width="25" height="12" viewBox="0 0 25 12" fill="none" xmlns="http://www.w3.org/2000/svg">
<path d="M1.66667 12C1.38334 12 1.14584 11.9042 0.954172 11.7125C0.762505 11.5208 0.666672 11.2833 0.666672 11V10.425C0.666672 9.70833 1.03334 9.125 1.76667 8.675C2.50001 8.225 3.46667 8 4.66667 8C4.88334 8 5.09167 8.00417 5.29167 8.0125C5.49167 8.02083 5.68334 8.04167 5.86667 8.075C5.63334 8.425 5.45834 8.79167 5.34167 9.175C5.22501 9.55833 5.16667 9.95833 5.16667 10.375V12H1.66667ZM7.66667 12C7.38334 12 7.14584 11.9042 6.95417 11.7125C6.76251 11.5208 6.66667 11.2833 6.66667 11V10.375C6.66667 9.84167 6.81251 9.35417 7.10417 8.9125C7.39584 8.47083 7.80834 8.08333 8.34167 7.75C8.87501 7.41667 9.51251 7.16667 10.2542 7C10.9958 6.83333 11.8 6.75 12.6667 6.75C13.55 6.75 14.3625 6.83333 15.1042 7C15.8458 7.16667 16.4833 7.41667 17.0167 7.75C17.55 8.08333 17.9583 8.47083 18.2417 8.9125C18.525 9.35417 18.6667 9.84167 18.6667 10.375V11C18.6667 11.2833 18.5708 11.5208 18.3792 11.7125C18.1875 11.9042 17.95 12 17.6667 12H7.66667ZM20.1667 12V10.375C20.1667 9.94167 20.1125 9.53333 20.0042 9.15C19.8958 8.76667 19.7333 8.40833 19.5167 8.075C19.7 8.04167 19.8875 8.02083 20.0792 8.0125C20.2708 8.00417 20.4667 8 20.6667 8C21.8667 8 22.8333 8.22083 23.5667 8.6625C24.3 9.10417 24.6667 9.69167 24.6667 10.425V11C24.6667 11.2833 24.5708 11.5208 24.3792 11.7125C24.1875 11.9042 23.95 12 23.6667 12H20.1667ZM4.66667 7C4.11667 7 3.64584 6.80417 3.25417 6.4125C2.86251 6.02083 2.66667 5.55 2.66667 5C2.66667 4.43333 2.86251 3.95833 3.25417 3.575C3.64584 3.19167 4.11667 3 4.66667 3C5.23334 3 5.70834 3.19167 6.09167 3.575C6.47501 3.95833 6.66667 4.43333 6.66667 5C6.66667 5.55 6.47501 6.02083 6.09167 6.4125C5.70834 6.80417 5.23334 7 4.66667 7ZM20.6667 7C20.1167 7 19.6458 6.80417 19.2542 6.4125C18.8625 6.02083 18.6667 5.55 18.6667 5C18.6667 4.43333 18.8625 3.95833 19.2542 3.575C19.6458 3.19167 20.1167 3 20.6667 3C21.2333 3 21.7083 3.19167 22.0917 3.575C22.475 3.95833 22.6667 4.43333 22.6667 5C22.6667 5.55 22.475 6.02083 22.0917 6.4125C21.7083 6.80417 21.2333 7 20.6667 7ZM12.6667 6C11.8333 6 11.125 5.70833 10.5417 5.125C9.95834 4.54167 9.66667 3.83333 9.66667 3C9.66667 2.15 9.95834 1.4375 10.5417 0.8625C11.125 0.2875 11.8333 0 12.6667 0C13.5167 0 14.2292 0.2875 14.8042 0.8625C15.3792 1.4375 15.6667 2.15 15.6667 3C15.6667 3.83333 15.3792 4.54167 14.8042 5.125C14.2292 5.70833 13.5167 6 12.6667 6Z" fill="#F9F9F9"/>
</svg>
