<svg width="16" height="16" viewBox="0 0 16 16" fill="none" xmlns="http://www.w3.org/2000/svg">
<mask id="mask0_299_1767" style="mask-type:alpha" maskUnits="userSpaceOnUse" x="0" y="0" width="16" height="16">
<rect width="16" height="16" fill="#D9D9D9"/>
</mask>
<g mask="url(#mask0_299_1767)">
<path d="M0.666667 6C0.855556 6 1.01389 6.06389 1.14167 6.19167C1.26944 6.31944 1.33333 6.47778 1.33333 6.66667V9.33333C1.33333 9.52222 1.26944 9.68056 1.14167 9.80833C1.01389 9.93611 0.855556 10 0.666667 10C0.477778 10 0.319444 9.93611 0.191667 9.80833C0.0638889 9.68056 0 9.52222 0 9.33333V6.66667C0 6.47778 0.0638889 6.31944 0.191667 6.19167C0.319444 6.06389 0.477778 6 0.666667 6ZM2.66667 4.66667C2.85556 4.66667 3.01389 4.73056 3.14167 4.85833C3.26944 4.98611 3.33333 5.14444 3.33333 5.33333V10.6667C3.33333 10.8556 3.26944 11.0139 3.14167 11.1417C3.01389 11.2694 2.85556 11.3333 2.66667 11.3333C2.47778 11.3333 2.31944 11.2694 2.19167 11.1417C2.06389 11.0139 2 10.8556 2 10.6667V5.33333C2 5.14444 2.06389 4.98611 2.19167 4.85833C2.31944 4.73056 2.47778 4.66667 2.66667 4.66667ZM15.3333 6C15.5222 6 15.6806 6.06389 15.8083 6.19167C15.9361 6.31944 16 6.47778 16 6.66667V9.33333C16 9.52222 15.9361 9.68056 15.8083 9.80833C15.6806 9.93611 15.5222 10 15.3333 10C15.1444 10 14.9861 9.93611 14.8583 9.80833C14.7306 9.68056 14.6667 9.52222 14.6667 9.33333V6.66667C14.6667 6.47778 14.7306 6.31944 14.8583 6.19167C14.9861 6.06389 15.1444 6 15.3333 6ZM13.3333 4.66667C13.5222 4.66667 13.6806 4.73056 13.8083 4.85833C13.9361 4.98611 14 5.14444 14 5.33333V10.6667C14 10.8556 13.9361 11.0139 13.8083 11.1417C13.6806 11.2694 13.5222 11.3333 13.3333 11.3333C13.1444 11.3333 12.9861 11.2694 12.8583 11.1417C12.7306 11.0139 12.6667 10.8556 12.6667 10.6667V5.33333C12.6667 5.14444 12.7306 4.98611 12.8583 4.85833C12.9861 4.73056 13.1444 4.66667 13.3333 4.66667ZM5.33333 14C4.96667 14 4.65278 13.8694 4.39167 13.6083C4.13056 13.3472 4 13.0333 4 12.6667V3.33333C4 2.96667 4.13056 2.65278 4.39167 2.39167C4.65278 2.13056 4.96667 2 5.33333 2H10.6667C11.0333 2 11.3472 2.13056 11.6083 2.39167C11.8694 2.65278 12 2.96667 12 3.33333V12.6667C12 13.0333 11.8694 13.3472 11.6083 13.6083C11.3472 13.8694 11.0333 14 10.6667 14H5.33333Z" fill="#F9F9F9"/>
</g>
</svg>
