<svg width="14" height="14" viewBox="0 0 14 14" fill="none" xmlns="http://www.w3.org/2000/svg">
<path d="M6.96659 11.0002C7.19992 11.0002 7.39714 10.9196 7.55825 10.7585C7.71936 10.5974 7.79992 10.4002 7.79992 10.1668C7.79992 9.9335 7.71936 9.73627 7.55825 9.57516C7.39714 9.41405 7.19992 9.3335 6.96659 9.3335C6.73325 9.3335 6.53603 9.41405 6.37492 9.57516C6.21381 9.73627 6.13325 9.9335 6.13325 10.1668C6.13325 10.4002 6.21381 10.5974 6.37492 10.7585C6.53603 10.9196 6.73325 11.0002 6.96659 11.0002ZM6.99992 13.6668C6.0777 13.6668 5.21103 13.4918 4.39992 13.1418C3.58881 12.7918 2.88325 12.3168 2.28325 11.7168C1.68325 11.1168 1.20825 10.4113 0.858252 9.60016C0.508252 8.78905 0.333252 7.92239 0.333252 7.00016C0.333252 6.07794 0.508252 5.21127 0.858252 4.40016C1.20825 3.58905 1.68325 2.8835 2.28325 2.2835C2.88325 1.6835 3.58881 1.2085 4.39992 0.858496C5.21103 0.508496 6.0777 0.333496 6.99992 0.333496C7.92214 0.333496 8.78881 0.508496 9.59992 0.858496C10.411 1.2085 11.1166 1.6835 11.7166 2.2835C12.3166 2.8835 12.7916 3.58905 13.1416 4.40016C13.4916 5.21127 13.6666 6.07794 13.6666 7.00016C13.6666 7.92239 13.4916 8.78905 13.1416 9.60016C12.7916 10.4113 12.3166 11.1168 11.7166 11.7168C11.1166 12.3168 10.411 12.7918 9.59992 13.1418C8.78881 13.4918 7.92214 13.6668 6.99992 13.6668ZM7.06659 4.1335C7.34436 4.1335 7.58603 4.22238 7.79159 4.40016C7.99714 4.57794 8.09992 4.80016 8.09992 5.06683C8.09992 5.31127 8.02492 5.52794 7.87492 5.71683C7.72492 5.90572 7.55547 6.0835 7.36659 6.25016C7.11103 6.47239 6.88603 6.71683 6.69159 6.9835C6.49714 7.25016 6.39992 7.55016 6.39992 7.8835C6.39992 8.03905 6.45825 8.16961 6.57492 8.27516C6.69159 8.38072 6.8277 8.4335 6.98325 8.4335C7.14992 8.4335 7.29159 8.37794 7.40825 8.26683C7.52492 8.15572 7.59992 8.01683 7.63325 7.85016C7.6777 7.61683 7.7777 7.4085 7.93325 7.22516C8.08881 7.04183 8.25547 6.86683 8.43325 6.70016C8.68881 6.45572 8.90825 6.18905 9.09159 5.90016C9.27492 5.61127 9.36659 5.28905 9.36659 4.9335C9.36659 4.36683 9.13603 3.90294 8.67492 3.54183C8.21381 3.18072 7.6777 3.00016 7.06659 3.00016C6.64436 3.00016 6.24159 3.08905 5.85825 3.26683C5.47492 3.44461 5.18325 3.71683 4.98325 4.0835C4.90547 4.21683 4.88047 4.3585 4.90825 4.5085C4.93603 4.6585 5.01103 4.77239 5.13325 4.85016C5.28881 4.93905 5.44992 4.96683 5.61659 4.9335C5.78325 4.90016 5.92214 4.80572 6.03325 4.65016C6.15547 4.4835 6.30825 4.35572 6.49159 4.26683C6.67492 4.17794 6.86659 4.1335 7.06659 4.1335Z" fill="#F9F9F9"/>
</svg>
