<svg width="14" height="14" viewBox="0 0 14 14" fill="none" xmlns="http://www.w3.org/2000/svg">
<path d="M7 13.6668C6.07778 13.6668 5.21111 13.4918 4.4 13.1418C3.58889 12.7918 2.88333 12.3168 2.28333 11.7168C1.68333 11.1168 1.20833 10.4113 0.858332 9.60016C0.508332 8.78905 0.333332 7.92239 0.333332 7.00016C0.333332 6.07794 0.508332 5.21127 0.858332 4.40016C1.20833 3.58905 1.68333 2.8835 2.28333 2.2835C2.88333 1.6835 3.58889 1.2085 4.4 0.858496C5.21111 0.508496 6.07778 0.333496 7 0.333496C7.92222 0.333496 8.78889 0.508496 9.6 0.858496C10.4111 1.2085 11.1167 1.6835 11.7167 2.2835C12.3167 2.8835 12.7917 3.58905 13.1417 4.40016C13.4917 5.21127 13.6667 6.07794 13.6667 7.00016C13.6667 7.92239 13.4917 8.78905 13.1417 9.60016C12.7917 10.4113 12.3167 11.1168 11.7167 11.7168C11.1167 12.3168 10.4111 12.7918 9.6 13.1418C8.78889 13.4918 7.92222 13.6668 7 13.6668ZM5.06667 11.9668L5.86667 10.1335C5.4 9.96683 4.99722 9.7085 4.65833 9.3585C4.31944 9.0085 4.05555 8.60016 3.86667 8.1335L2.03333 8.90016C2.28889 9.61127 2.68333 10.2335 3.21667 10.7668C3.75 11.3002 4.36667 11.7002 5.06667 11.9668ZM3.86667 5.86683C4.05555 5.40016 4.31944 4.99183 4.65833 4.64183C4.99722 4.29183 5.4 4.0335 5.86667 3.86683L5.1 2.0335C4.38889 2.30016 3.76667 2.70016 3.23333 3.2335C2.7 3.76683 2.3 4.38905 2.03333 5.10016L3.86667 5.86683ZM7 9.00016C7.55555 9.00016 8.02778 8.80572 8.41667 8.41683C8.80555 8.02794 9 7.55572 9 7.00016C9 6.44461 8.80555 5.97239 8.41667 5.5835C8.02778 5.19461 7.55555 5.00016 7 5.00016C6.44444 5.00016 5.97222 5.19461 5.58333 5.5835C5.19444 5.97239 5 6.44461 5 7.00016C5 7.55572 5.19444 8.02794 5.58333 8.41683C5.97222 8.80572 6.44444 9.00016 7 9.00016ZM8.93333 11.9668C9.63333 11.7002 10.2472 11.3029 10.775 10.7752C11.3028 10.2474 11.7 9.6335 11.9667 8.9335L10.1333 8.1335C9.96667 8.60016 9.71111 9.00294 9.36667 9.34183C9.02222 9.68072 8.62222 9.94461 8.16667 10.1335L8.93333 11.9668ZM10.1333 5.8335L11.9667 5.06683C11.7 4.36683 11.3028 3.75294 10.775 3.22516C10.2472 2.69739 9.63333 2.30016 8.93333 2.0335L8.16667 3.90016C8.62222 4.06683 9.01667 4.31961 9.35 4.6585C9.68333 4.99739 9.94444 5.38905 10.1333 5.8335Z" fill="#F9F9F9"/>
</svg>
