<svg width="14" height="13" viewBox="0 0 14 13" fill="none" xmlns="http://www.w3.org/2000/svg">
<path d="M7 12.5499C6.84444 12.5499 6.68611 12.5222 6.525 12.4666C6.36389 12.411 6.22222 12.3222 6.1 12.1999L4.95 11.1499C3.77222 10.0722 2.70833 9.00271 1.75833 7.9416C0.808332 6.88049 0.333332 5.71105 0.333332 4.43327C0.333332 3.38882 0.683332 2.5166 1.38333 1.8166C2.08333 1.1166 2.95555 0.766602 4 0.766602C4.58889 0.766602 5.14444 0.891602 5.66667 1.1416C6.18889 1.3916 6.63333 1.73327 7 2.1666C7.36667 1.73327 7.81111 1.3916 8.33333 1.1416C8.85555 0.891602 9.41111 0.766602 10 0.766602C11.0444 0.766602 11.9167 1.1166 12.6167 1.8166C13.3167 2.5166 13.6667 3.38882 13.6667 4.43327C13.6667 5.71105 13.1944 6.88327 12.25 7.94994C11.3056 9.0166 10.2333 10.0888 9.03333 11.1666L7.9 12.1999C7.77778 12.3222 7.63611 12.411 7.475 12.4666C7.31389 12.5222 7.15555 12.5499 7 12.5499Z" fill="#F9F9F9"/>
</svg>
