<svg width="16" height="16" viewBox="0 0 16 16" fill="none" xmlns="http://www.w3.org/2000/svg">
<mask id="mask0_268_1939" style="mask-type:alpha" maskUnits="userSpaceOnUse" x="0" y="0" width="16" height="16">
<rect x="3.05176e-05" width="16" height="16" fill="#D9D9D9"/>
</mask>
<g mask="url(#mask0_268_1939)">
<path d="M8.00004 14.6668C7.08893 14.6668 6.22782 14.4918 5.41671 14.1418C4.6056 13.7918 3.89726 13.3141 3.29171 12.7085C2.68615 12.1029 2.20837 11.3946 1.85837 10.5835C1.50837 9.77239 1.33337 8.91127 1.33337 8.00016C1.33337 7.07794 1.50837 6.21405 1.85837 5.4085C2.20837 4.60294 2.68615 3.89739 3.29171 3.29183C3.89726 2.68627 4.6056 2.2085 5.41671 1.8585C6.22782 1.5085 7.08893 1.3335 8.00004 1.3335C8.92226 1.3335 9.78615 1.5085 10.5917 1.8585C11.3973 2.2085 12.1028 2.68627 12.7084 3.29183C13.3139 3.89739 13.7917 4.60294 14.1417 5.4085C14.4917 6.21405 14.6667 7.07794 14.6667 8.00016C14.6667 8.91127 14.4917 9.77239 14.1417 10.5835C13.7917 11.3946 13.3139 12.1029 12.7084 12.7085C12.1028 13.3141 11.3973 13.7918 10.5917 14.1418C9.78615 14.4918 8.92226 14.6668 8.00004 14.6668ZM8.00004 13.3002C8.28893 12.9002 8.53893 12.4835 8.75004 12.0502C8.96115 11.6168 9.13337 11.1557 9.26671 10.6668H6.73337C6.86671 11.1557 7.03893 11.6168 7.25004 12.0502C7.46115 12.4835 7.71115 12.9002 8.00004 13.3002ZM6.26671 13.0335C6.06671 12.6668 5.89171 12.2863 5.74171 11.8918C5.59171 11.4974 5.46671 11.0891 5.36671 10.6668H3.40004C3.72226 11.2224 4.12504 11.7057 4.60837 12.1168C5.09171 12.5279 5.64449 12.8335 6.26671 13.0335ZM9.73337 13.0335C10.3556 12.8335 10.9084 12.5279 11.3917 12.1168C11.875 11.7057 12.2778 11.2224 12.6 10.6668H10.6334C10.5334 11.0891 10.4084 11.4974 10.2584 11.8918C10.1084 12.2863 9.93337 12.6668 9.73337 13.0335ZM2.83337 9.3335H5.10004C5.06671 9.11127 5.04171 8.89183 5.02504 8.67516C5.00837 8.4585 5.00004 8.2335 5.00004 8.00016C5.00004 7.76683 5.00837 7.54183 5.02504 7.32516C5.04171 7.1085 5.06671 6.88905 5.10004 6.66683H2.83337C2.77782 6.88905 2.73615 7.1085 2.70837 7.32516C2.6806 7.54183 2.66671 7.76683 2.66671 8.00016C2.66671 8.2335 2.6806 8.4585 2.70837 8.67516C2.73615 8.89183 2.77782 9.11127 2.83337 9.3335ZM6.43337 9.3335H9.56671C9.60004 9.11127 9.62504 8.89183 9.64171 8.67516C9.65837 8.4585 9.66671 8.2335 9.66671 8.00016C9.66671 7.76683 9.65837 7.54183 9.64171 7.32516C9.62504 7.1085 9.60004 6.88905 9.56671 6.66683H6.43337C6.40004 6.88905 6.37504 7.1085 6.35837 7.32516C6.34171 7.54183 6.33337 7.76683 6.33337 8.00016C6.33337 8.2335 6.34171 8.4585 6.35837 8.67516C6.37504 8.89183 6.40004 9.11127 6.43337 9.3335ZM10.9 9.3335H13.1667C13.2223 9.11127 13.2639 8.89183 13.2917 8.67516C13.3195 8.4585 13.3334 8.2335 13.3334 8.00016C13.3334 7.76683 13.3195 7.54183 13.2917 7.32516C13.2639 7.1085 13.2223 6.88905 13.1667 6.66683H10.9C10.9334 6.88905 10.9584 7.1085 10.975 7.32516C10.9917 7.54183 11 7.76683 11 8.00016C11 8.2335 10.9917 8.4585 10.975 8.67516C10.9584 8.89183 10.9334 9.11127 10.9 9.3335ZM10.6334 5.3335H12.6C12.2778 4.77794 11.875 4.29461 11.3917 3.8835C10.9084 3.47239 10.3556 3.16683 9.73337 2.96683C9.93337 3.3335 10.1084 3.71405 10.2584 4.1085C10.4084 4.50294 10.5334 4.91127 10.6334 5.3335ZM6.73337 5.3335H9.26671C9.13337 4.84461 8.96115 4.3835 8.75004 3.95016C8.53893 3.51683 8.28893 3.10016 8.00004 2.70016C7.71115 3.10016 7.46115 3.51683 7.25004 3.95016C7.03893 4.3835 6.86671 4.84461 6.73337 5.3335ZM3.40004 5.3335H5.36671C5.46671 4.91127 5.59171 4.50294 5.74171 4.1085C5.89171 3.71405 6.06671 3.3335 6.26671 2.96683C5.64449 3.16683 5.09171 3.47239 4.60837 3.8835C4.12504 4.29461 3.72226 4.77794 3.40004 5.3335Z" fill="#1A1D21"/>
</g>
</svg>
