<svg width="16" height="12" viewBox="0 0 16 12" fill="none" xmlns="http://www.w3.org/2000/svg">
<path d="M3.8499 7.00001L6.6999 9.85001C6.8999 10.05 6.99574 10.2833 6.9874 10.55C6.97907 10.8167 6.88324 11.05 6.6999 11.25C6.4999 11.45 6.2624 11.5542 5.9874 11.5625C5.7124 11.5708 5.4749 11.475 5.2749 11.275L0.699902 6.70001C0.499902 6.50001 0.399902 6.26668 0.399902 6.00001C0.399902 5.73335 0.499902 5.50001 0.699902 5.30001L5.2749 0.725012C5.4749 0.525012 5.7124 0.429178 5.9874 0.437512C6.2624 0.445845 6.4999 0.550012 6.6999 0.750012C6.88324 0.950012 6.97907 1.18335 6.9874 1.45001C6.99574 1.71668 6.8999 1.95001 6.6999 2.15001L3.8499 5.00001H14.9999C15.2832 5.00001 15.5207 5.09585 15.7124 5.28751C15.9041 5.47918 15.9999 5.71668 15.9999 6.00001C15.9999 6.28335 15.9041 6.52085 15.7124 6.71251C15.5207 6.90418 15.2832 7.00001 14.9999 7.00001H3.8499Z" fill="#F9F9F9"/>
</svg>
