<svg width="15" height="15" viewBox="0 0 15 15" fill="none" xmlns="http://www.w3.org/2000/svg">
<path d="M2.7 6.00016C2.56667 5.94461 2.44167 5.88627 2.325 5.82516C2.20833 5.76405 2.08889 5.68905 1.96667 5.60016L1.48333 5.75016C1.33889 5.79461 1.19722 5.78905 1.05833 5.7335C0.919443 5.67794 0.81111 5.58905 0.733332 5.46683L0.599999 5.2335C0.522221 5.10016 0.494443 4.95572 0.516666 4.80016C0.538888 4.64461 0.61111 4.51683 0.733332 4.41683L1.1 4.10016C1.07778 3.95572 1.06667 3.81127 1.06667 3.66683C1.06667 3.52239 1.07778 3.37794 1.1 3.2335L0.733332 2.91683C0.61111 2.81683 0.538888 2.69183 0.516666 2.54183C0.494443 2.39183 0.522221 2.25016 0.599999 2.11683L0.749999 1.86683C0.827777 1.74461 0.933332 1.65572 1.06667 1.60016C1.2 1.54461 1.33889 1.53905 1.48333 1.5835L1.96667 1.7335C2.08889 1.64461 2.20833 1.56961 2.325 1.5085C2.44167 1.44739 2.56667 1.38905 2.7 1.3335L2.8 0.850163C2.83333 0.694607 2.90833 0.569607 3.025 0.475163C3.14167 0.380718 3.27778 0.333496 3.43333 0.333496H3.7C3.85555 0.333496 3.99167 0.383496 4.10833 0.483496C4.225 0.583496 4.3 0.711274 4.33333 0.866829L4.43333 1.3335C4.56667 1.38905 4.69167 1.44739 4.80833 1.5085C4.925 1.56961 5.04444 1.64461 5.16667 1.7335L5.65 1.5835C5.79444 1.53905 5.93611 1.54461 6.075 1.60016C6.21389 1.65572 6.32222 1.74461 6.4 1.86683L6.53333 2.10016C6.61111 2.2335 6.63889 2.37794 6.61667 2.5335C6.59444 2.68905 6.52222 2.81683 6.4 2.91683L6.03333 3.2335C6.05556 3.37794 6.06667 3.52239 6.06667 3.66683C6.06667 3.81127 6.05556 3.95572 6.03333 4.10016L6.4 4.41683C6.52222 4.51683 6.59444 4.64183 6.61667 4.79183C6.63889 4.94183 6.61111 5.0835 6.53333 5.21683L6.38333 5.46683C6.30555 5.58905 6.2 5.67794 6.06667 5.7335C5.93333 5.78905 5.79444 5.79461 5.65 5.75016L5.16667 5.60016C5.04444 5.68905 4.925 5.76405 4.80833 5.82516C4.69167 5.88627 4.56667 5.94461 4.43333 6.00016L4.33333 6.4835C4.3 6.63905 4.225 6.76405 4.10833 6.8585C3.99167 6.95294 3.85555 7.00016 3.7 7.00016H3.43333C3.27778 7.00016 3.14167 6.95016 3.025 6.85016C2.90833 6.75016 2.83333 6.62239 2.8 6.46683L2.7 6.00016ZM3.56667 5.00016C3.93333 5.00016 4.24722 4.86961 4.50833 4.6085C4.76944 4.34738 4.9 4.0335 4.9 3.66683C4.9 3.30016 4.76944 2.98627 4.50833 2.72516C4.24722 2.46405 3.93333 2.3335 3.56667 2.3335C3.2 2.3335 2.88611 2.46405 2.625 2.72516C2.36389 2.98627 2.23333 3.30016 2.23333 3.66683C2.23333 4.0335 2.36389 4.34738 2.625 4.6085C2.88611 4.86961 3.2 5.00016 3.56667 5.00016ZM8.56667 12.9335C8.37778 12.8668 8.20278 12.7863 8.04167 12.6918C7.88056 12.5974 7.72222 12.4891 7.56667 12.3668L6.93333 12.5668C6.73333 12.6335 6.53333 12.6307 6.33333 12.5585C6.13333 12.4863 5.97778 12.3557 5.86667 12.1668L5.68333 11.8502C5.57222 11.6613 5.53333 11.4585 5.56667 11.2418C5.6 11.0252 5.7 10.8446 5.86667 10.7002L6.36667 10.2668C6.34444 10.0668 6.33333 9.86683 6.33333 9.66683C6.33333 9.46683 6.34444 9.26683 6.36667 9.06683L5.86667 8.61683C5.7 8.47239 5.6 8.29461 5.56667 8.0835C5.53333 7.87239 5.57222 7.67239 5.68333 7.4835L5.86667 7.16683C5.97778 6.97794 6.13333 6.84739 6.33333 6.77516C6.53333 6.70294 6.73333 6.70016 6.93333 6.76683L7.56667 6.96683C7.72222 6.84461 7.88056 6.73627 8.04167 6.64183C8.20278 6.54739 8.37778 6.46683 8.56667 6.40016L8.71667 5.71683C8.76111 5.50572 8.86389 5.3335 9.025 5.20016C9.18611 5.06683 9.37778 5.00016 9.6 5.00016H10C10.2222 5.00016 10.4139 5.06683 10.575 5.20016C10.7361 5.3335 10.8389 5.50572 10.8833 5.71683L11.0333 6.40016C11.2222 6.46683 11.3972 6.54739 11.5583 6.64183C11.7194 6.73627 11.8778 6.84461 12.0333 6.96683L12.6667 6.76683C12.8667 6.70016 13.0667 6.70294 13.2667 6.77516C13.4667 6.84739 13.6222 6.97794 13.7333 7.16683L13.9167 7.4835C14.0278 7.67239 14.0667 7.87516 14.0333 8.09183C14 8.3085 13.9 8.48905 13.7333 8.6335L13.2333 9.06683C13.2556 9.26683 13.2667 9.46683 13.2667 9.66683C13.2667 9.86683 13.2556 10.0668 13.2333 10.2668L13.7333 10.7168C13.9 10.8613 14 11.0391 14.0333 11.2502C14.0667 11.4613 14.0278 11.6613 13.9167 11.8502L13.7333 12.1668C13.6222 12.3557 13.4667 12.4863 13.2667 12.5585C13.0667 12.6307 12.8667 12.6335 12.6667 12.5668L12.0333 12.3668C11.8778 12.4891 11.7194 12.5974 11.5583 12.6918C11.3972 12.7863 11.2222 12.8668 11.0333 12.9335L10.8833 13.6168C10.8389 13.8279 10.7361 14.0002 10.575 14.1335C10.4139 14.2668 10.2222 14.3335 10 14.3335H9.6C9.37778 14.3335 9.18611 14.2668 9.025 14.1335C8.86389 14.0002 8.76111 13.8279 8.71667 13.6168L8.56667 12.9335ZM9.8 11.6668C10.3556 11.6668 10.8278 11.4724 11.2167 11.0835C11.6056 10.6946 11.8 10.2224 11.8 9.66683C11.8 9.11127 11.6056 8.63905 11.2167 8.25016C10.8278 7.86127 10.3556 7.66683 9.8 7.66683C9.24444 7.66683 8.77222 7.86127 8.38333 8.25016C7.99444 8.63905 7.8 9.11127 7.8 9.66683C7.8 10.2224 7.99444 10.6946 8.38333 11.0835C8.77222 11.4724 9.24444 11.6668 9.8 11.6668Z" fill="#F9F9F9"/>
</svg>
