<svg width="13" height="14" viewBox="0 0 13 14" fill="none" xmlns="http://www.w3.org/2000/svg">
<path d="M9.33333 10.3331C9.61111 10.3331 9.84722 10.2359 10.0417 10.0414C10.2361 9.847 10.3333 9.61088 10.3333 9.33311C10.3333 9.05533 10.2361 8.81922 10.0417 8.62477C9.84722 8.43033 9.61111 8.33311 9.33333 8.33311C9.05556 8.33311 8.81945 8.43033 8.625 8.62477C8.43056 8.81922 8.33333 9.05533 8.33333 9.33311C8.33333 9.61088 8.43056 9.847 8.625 10.0414C8.81945 10.2359 9.05556 10.3331 9.33333 10.3331ZM9.33333 12.3331C9.67778 12.3331 9.99445 12.2526 10.2833 12.0914C10.5722 11.9303 10.8056 11.7164 10.9833 11.4498C10.7389 11.3053 10.4778 11.1942 10.2 11.1164C9.92222 11.0387 9.63334 10.9998 9.33333 10.9998C9.03333 10.9998 8.74445 11.0387 8.46667 11.1164C8.18889 11.1942 7.92778 11.3053 7.68334 11.4498C7.86111 11.7164 8.09445 11.9303 8.38333 12.0914C8.67222 12.2526 8.98889 12.3331 9.33333 12.3331ZM9.33333 13.6664C8.41111 13.6664 7.625 13.3414 6.975 12.6914C6.325 12.0414 6 11.2553 6 10.3331C6 9.41088 6.325 8.62477 6.975 7.97477C7.625 7.32477 8.41111 6.99977 9.33333 6.99977C10.2556 6.99977 11.0417 7.32477 11.6917 7.97477C12.3417 8.62477 12.6667 9.41088 12.6667 10.3331C12.6667 11.2553 12.3417 12.0414 11.6917 12.6914C11.0417 13.3414 10.2556 13.6664 9.33333 13.6664ZM6 13.6664C4.45556 13.2776 3.18056 12.3914 2.175 11.0081C1.16945 9.62477 0.666668 8.08866 0.666668 6.39977V3.24977C0.666668 2.97199 0.747223 2.72199 0.908335 2.49977C1.06945 2.27755 1.27778 2.11644 1.53333 2.01644L5.53333 0.516439C5.68889 0.460883 5.84445 0.433105 6 0.433105C6.15556 0.433105 6.31111 0.460883 6.46667 0.516439L10.4667 2.01644C10.7222 2.11644 10.9306 2.27755 11.0917 2.49977C11.2528 2.72199 11.3333 2.97199 11.3333 3.24977V6.11644C11.0444 5.97199 10.7194 5.86088 10.3583 5.78311C9.99722 5.70533 9.65556 5.66644 9.33333 5.66644C8.04445 5.66644 6.94445 6.12199 6.03333 7.03311C5.12222 7.94422 4.66667 9.04422 4.66667 10.3331C4.66667 11.022 4.79722 11.6442 5.05833 12.1998C5.31945 12.7553 5.65 13.2387 6.05 13.6498C6.03889 13.6498 6.03056 13.6525 6.025 13.6581C6.01945 13.6637 6.01111 13.6664 6 13.6664Z" fill="#F9F9F9"/>
</svg>
