<svg width="12" height="12" viewBox="0 0 12 12" fill="none" xmlns="http://www.w3.org/2000/svg">
<path d="M0 4.66667V0.666667C0 0.477778 0.0638889 0.319444 0.191667 0.191667C0.319444 0.0638889 0.477778 0 0.666667 0H4.66667C4.85556 0 5.01389 0.0638889 5.14167 0.191667C5.26944 0.319444 5.33333 0.477778 5.33333 0.666667V4.66667C5.33333 4.85556 5.26944 5.01389 5.14167 5.14167C5.01389 5.26944 4.85556 5.33333 4.66667 5.33333H0.666667C0.477778 5.33333 0.319444 5.26944 0.191667 5.14167C0.0638889 5.01389 0 4.85556 0 4.66667ZM1.33333 4H4V1.33333H1.33333V4ZM0 11.3333V7.33333C0 7.14444 0.0638889 6.98611 0.191667 6.85833C0.319444 6.73056 0.477778 6.66667 0.666667 6.66667H4.66667C4.85556 6.66667 5.01389 6.73056 5.14167 6.85833C5.26944 6.98611 5.33333 7.14444 5.33333 7.33333V11.3333C5.33333 11.5222 5.26944 11.6806 5.14167 11.8083C5.01389 11.9361 4.85556 12 4.66667 12H0.666667C0.477778 12 0.319444 11.9361 0.191667 11.8083C0.0638889 11.6806 0 11.5222 0 11.3333ZM1.33333 10.6667H4V8H1.33333V10.6667ZM6.66667 4.66667V0.666667C6.66667 0.477778 6.73056 0.319444 6.85833 0.191667C6.98611 0.0638889 7.14444 0 7.33333 0H11.3333C11.5222 0 11.6806 0.0638889 11.8083 0.191667C11.9361 0.319444 12 0.477778 12 0.666667V4.66667C12 4.85556 11.9361 5.01389 11.8083 5.14167C11.6806 5.26944 11.5222 5.33333 11.3333 5.33333H7.33333C7.14444 5.33333 6.98611 5.26944 6.85833 5.14167C6.73056 5.01389 6.66667 4.85556 6.66667 4.66667ZM8 4H10.6667V1.33333H8V4ZM10.6667 12V10.6667H12V12H10.6667ZM6.66667 8V6.66667H8V8H6.66667ZM8 9.33333V8H9.33333V9.33333H8ZM6.66667 10.6667V9.33333H8V10.6667H6.66667ZM8 12V10.6667H9.33333V12H8ZM9.33333 10.6667V9.33333H10.6667V10.6667H9.33333ZM9.33333 8V6.66667H10.6667V8H9.33333ZM10.6667 9.33333V8H12V9.33333H10.6667Z" fill="#F9F9F9"/>
</svg>
