<svg width="12" height="14" viewBox="0 0 12 14" fill="none" xmlns="http://www.w3.org/2000/svg">
<path d="M2 13.6668C1.44444 13.6668 0.972222 13.4724 0.583333 13.0835C0.194444 12.6946 0 12.2224 0 11.6668V11.0002C0 10.6335 0.130556 10.3196 0.391667 10.0585C0.652778 9.79739 0.966667 9.66683 1.33333 9.66683H2V1.66683C2 1.30016 2.13056 0.986274 2.39167 0.725163C2.65278 0.464052 2.96667 0.333496 3.33333 0.333496H10.6667C11.0333 0.333496 11.3472 0.464052 11.6083 0.725163C11.8694 0.986274 12 1.30016 12 1.66683V11.6668C12 12.2224 11.8056 12.6946 11.4167 13.0835C11.0278 13.4724 10.5556 13.6668 10 13.6668H2ZM10 12.3335C10.1889 12.3335 10.3472 12.2696 10.475 12.1418C10.6028 12.0141 10.6667 11.8557 10.6667 11.6668V1.66683H3.33333V9.66683H8C8.36667 9.66683 8.68056 9.79739 8.94167 10.0585C9.20278 10.3196 9.33333 10.6335 9.33333 11.0002V11.6668C9.33333 11.8557 9.39722 12.0141 9.525 12.1418C9.65278 12.2696 9.81111 12.3335 10 12.3335ZM4.66667 5.00016C4.47778 5.00016 4.31944 4.93627 4.19167 4.8085C4.06389 4.68072 4 4.52239 4 4.3335C4 4.14461 4.06389 3.98627 4.19167 3.8585C4.31944 3.73072 4.47778 3.66683 4.66667 3.66683H9.33333C9.52222 3.66683 9.68056 3.73072 9.80833 3.8585C9.93611 3.98627 10 4.14461 10 4.3335C10 4.52239 9.93611 4.68072 9.80833 4.8085C9.68056 4.93627 9.52222 5.00016 9.33333 5.00016H4.66667ZM4.66667 7.00016C4.47778 7.00016 4.31944 6.93627 4.19167 6.8085C4.06389 6.68072 4 6.52239 4 6.3335C4 6.14461 4.06389 5.98627 4.19167 5.8585C4.31944 5.73072 4.47778 5.66683 4.66667 5.66683H9.33333C9.52222 5.66683 9.68056 5.73072 9.80833 5.8585C9.93611 5.98627 10 6.14461 10 6.3335C10 6.52239 9.93611 6.68072 9.80833 6.8085C9.68056 6.93627 9.52222 7.00016 9.33333 7.00016H4.66667Z" fill="#F9F9F9"/>
</svg>
