<svg width="27" height="28" viewBox="0 0 27 28" fill="none" xmlns="http://www.w3.org/2000/svg">
<path d="M24 17.9998V11.3332C24 10.2221 23.6111 9.27762 22.8333 8.49984C22.0556 7.72206 21.1111 7.33317 20 7.33317H5.33335V3.33317C5.33335 2.59984 5.59446 1.97206 6.11668 1.44984C6.6389 0.927615 7.26668 0.666504 8.00002 0.666504H24C24.7333 0.666504 25.3611 0.927615 25.8834 1.44984C26.4056 1.97206 26.6667 2.59984 26.6667 3.33317V15.3332C26.6667 16.0665 26.4056 16.6943 25.8834 17.2165C25.3611 17.7387 24.7333 17.9998 24 17.9998ZM2.66668 27.3332C1.93335 27.3332 1.30557 27.0721 0.783349 26.5498C0.261126 26.0276 1.52588e-05 25.3998 1.52588e-05 24.6665V12.6665C1.52588e-05 11.9332 0.261126 11.3054 0.783349 10.7832C1.30557 10.2609 1.93335 9.99984 2.66668 9.99984H18.6667C19.4 9.99984 20.0278 10.2609 20.55 10.7832C21.0722 11.3054 21.3333 11.9332 21.3333 12.6665V24.6665C21.3333 25.3998 21.0722 26.0276 20.55 26.5498C20.0278 27.0721 19.4 27.3332 18.6667 27.3332H2.66668Z" fill="#F9F9F9"/>
</svg>
