<svg width="49" height="48" viewBox="0 0 49 48" fill="none" xmlns="http://www.w3.org/2000/svg">
<path d="M0.5 48L3.874 35.674C1.792 32.066 0.698 27.976 0.7 23.782C0.706 10.67 11.376 0 24.486 0C30.848 0.002 36.82 2.48 41.312 6.976C45.802 11.472 48.274 17.448 48.272 23.804C48.266 36.918 37.596 47.588 24.486 47.588C20.506 47.586 16.584 46.588 13.11 44.692L0.5 48ZM13.694 40.386C17.046 42.376 20.246 43.568 24.478 43.57C35.374 43.57 44.25 34.702 44.256 23.8C44.26 12.876 35.426 4.02 24.494 4.016C13.59 4.016 4.72 12.884 4.716 23.784C4.714 28.234 6.018 31.566 8.208 35.052L6.21 42.348L13.694 40.386ZM36.468 29.458C36.32 29.21 35.924 29.062 35.328 28.764C34.734 28.466 31.812 27.028 31.266 26.83C30.722 26.632 30.326 26.532 29.928 27.128C29.532 27.722 28.392 29.062 28.046 29.458C27.7 29.854 27.352 29.904 26.758 29.606C26.164 29.308 24.248 28.682 21.978 26.656C20.212 25.08 19.018 23.134 18.672 22.538C18.326 21.944 18.636 21.622 18.932 21.326C19.2 21.06 19.526 20.632 19.824 20.284C20.126 19.94 20.224 19.692 20.424 19.294C20.622 18.898 20.524 18.55 20.374 18.252C20.224 17.956 19.036 15.03 18.542 13.84C18.058 12.682 17.568 12.838 17.204 12.82L16.064 12.8C15.668 12.8 15.024 12.948 14.48 13.544C13.936 14.14 12.4 15.576 12.4 18.502C12.4 21.428 14.53 24.254 14.826 24.65C15.124 25.046 19.016 31.05 24.978 33.624C26.396 34.236 27.504 34.602 28.366 34.876C29.79 35.328 31.086 35.264 32.11 35.112C33.252 34.942 35.626 33.674 36.122 32.286C36.618 30.896 36.618 29.706 36.468 29.458Z" fill="#F9F9F9"/>
</svg>
