<svg width="16" height="16" viewBox="0 0 16 16" fill="none" xmlns="http://www.w3.org/2000/svg">
<mask id="mask0_297_1680" style="mask-type:alpha" maskUnits="userSpaceOnUse" x="0" y="0" width="16" height="16">
<rect width="16" height="16" fill="#D9D9D9"/>
</mask>
<g mask="url(#mask0_297_1680)">
<path d="M7.99992 14.6668C7.0777 14.6668 6.21103 14.4918 5.39992 14.1418C4.58881 13.7918 3.88325 13.3168 3.28325 12.7168C2.68325 12.1168 2.20825 11.4113 1.85825 10.6002C1.50825 9.78905 1.33325 8.92239 1.33325 8.00016C1.33325 7.07794 1.50825 6.21127 1.85825 5.40016C2.20825 4.58905 2.68325 3.8835 3.28325 3.2835C3.88325 2.6835 4.58881 2.2085 5.39992 1.8585C6.21103 1.5085 7.0777 1.3335 7.99992 1.3335C8.92214 1.3335 9.78881 1.5085 10.5999 1.8585C11.411 2.2085 12.1166 2.6835 12.7166 3.2835C13.3166 3.8835 13.7916 4.58905 14.1416 5.40016C14.4916 6.21127 14.6666 7.07794 14.6666 8.00016C14.6666 8.92239 14.4916 9.78905 14.1416 10.6002C13.7916 11.4113 13.3166 12.1168 12.7166 12.7168C12.1166 13.3168 11.411 13.7918 10.5999 14.1418C9.78881 14.4918 8.92214 14.6668 7.99992 14.6668ZM7.99992 13.3335C8.59992 13.3335 9.1777 13.2363 9.73325 13.0418C10.2888 12.8474 10.7999 12.5668 11.2666 12.2002L3.79992 4.7335C3.43325 5.20016 3.1527 5.71127 2.95825 6.26683C2.76381 6.82239 2.66659 7.40016 2.66659 8.00016C2.66659 9.48905 3.18325 10.7502 4.21659 11.7835C5.24992 12.8168 6.51103 13.3335 7.99992 13.3335ZM12.1999 11.2668C12.5666 10.8002 12.8471 10.2891 13.0416 9.7335C13.236 9.17794 13.3333 8.60016 13.3333 8.00016C13.3333 6.51127 12.8166 5.25016 11.7833 4.21683C10.7499 3.1835 9.48881 2.66683 7.99992 2.66683C7.39992 2.66683 6.82214 2.76405 6.26659 2.9585C5.71103 3.15294 5.19992 3.4335 4.73325 3.80016L12.1999 11.2668Z" fill="#F9F9F9"/>
</g>
</svg>
