<svg width="25" height="24" viewBox="0 0 25 24" fill="none" xmlns="http://www.w3.org/2000/svg">
<rect x="0.5" width="24" height="24" rx="12" fill="#F9F9F9"/>
<mask id="mask0_291_1597" style="mask-type:alpha" maskUnits="userSpaceOnUse" x="4" y="4" width="17" height="16">
<rect x="4.5" y="4" width="16" height="16" fill="#D9D9D9"/>
</mask>
<g mask="url(#mask0_291_1597)">
<path d="M12.5 15.6667C13.3333 15.6667 14.0416 15.375 14.625 14.7917C15.2083 14.2083 15.5 13.5 15.5 12.6667C15.5 11.8333 15.2083 11.125 14.625 10.5417C14.0416 9.95833 13.3333 9.66667 12.5 9.66667C11.6666 9.66667 10.9583 9.95833 10.375 10.5417C9.79165 11.125 9.49998 11.8333 9.49998 12.6667C9.49998 13.5 9.79165 14.2083 10.375 14.7917C10.9583 15.375 11.6666 15.6667 12.5 15.6667ZM12.5 14.3333C12.0333 14.3333 11.6389 14.1722 11.3166 13.85C10.9944 13.5278 10.8333 13.1333 10.8333 12.6667C10.8333 12.2 10.9944 11.8056 11.3166 11.4833C11.6389 11.1611 12.0333 11 12.5 11C12.9666 11 13.3611 11.1611 13.6833 11.4833C14.0055 11.8056 14.1666 12.2 14.1666 12.6667C14.1666 13.1333 14.0055 13.5278 13.6833 13.85C13.3611 14.1722 12.9666 14.3333 12.5 14.3333ZM7.16665 18C6.79998 18 6.48609 17.8694 6.22498 17.6083C5.96387 17.3472 5.83331 17.0333 5.83331 16.6667V8.66667C5.83331 8.3 5.96387 7.98611 6.22498 7.725C6.48609 7.46389 6.79998 7.33333 7.16665 7.33333H9.26665L10.1 6.43333C10.2222 6.3 10.3694 6.19444 10.5416 6.11667C10.7139 6.03889 10.8944 6 11.0833 6H13.9166C14.1055 6 14.2861 6.03889 14.4583 6.11667C14.6305 6.19444 14.7778 6.3 14.9 6.43333L15.7333 7.33333H17.8333C18.2 7.33333 18.5139 7.46389 18.775 7.725C19.0361 7.98611 19.1666 8.3 19.1666 8.66667V16.6667C19.1666 17.0333 19.0361 17.3472 18.775 17.6083C18.5139 17.8694 18.2 18 17.8333 18H7.16665Z" fill="#1A1D21"/>
</g>
</svg>
