<svg width="16" height="12" viewBox="0 0 16 12" fill="none" xmlns="http://www.w3.org/2000/svg">
<path d="M0.666748 9.4665C0.666748 9.08873 0.76397 8.7415 0.958415 8.42484C1.15286 8.10817 1.41119 7.8665 1.73341 7.69984C2.4223 7.35539 3.1223 7.09706 3.83341 6.92484C4.54453 6.75261 5.26675 6.6665 6.00008 6.6665C6.73341 6.6665 7.45564 6.75261 8.16675 6.92484C8.87786 7.09706 9.57786 7.35539 10.2667 7.69984C10.589 7.8665 10.8473 8.10817 11.0417 8.42484C11.2362 8.7415 11.3334 9.08873 11.3334 9.4665V9.99984C11.3334 10.3665 11.2029 10.6804 10.9417 10.9415C10.6806 11.2026 10.3667 11.3332 10.0001 11.3332H2.00008C1.63341 11.3332 1.31953 11.2026 1.05841 10.9415C0.797304 10.6804 0.666748 10.3665 0.666748 9.99984V9.4665ZM12.3001 11.3332C12.4223 11.1332 12.514 10.9193 12.5751 10.6915C12.6362 10.4637 12.6667 10.2332 12.6667 9.99984V9.33317C12.6667 8.84428 12.5306 8.37484 12.2584 7.92484C11.9862 7.47484 11.6001 7.08873 11.1001 6.7665C11.6667 6.83317 12.2001 6.94706 12.7001 7.10817C13.2001 7.26928 13.6667 7.4665 14.1001 7.69984C14.5001 7.92206 14.8056 8.16928 15.0167 8.4415C15.2279 8.71373 15.3334 9.01095 15.3334 9.33317V9.99984C15.3334 10.3665 15.2029 10.6804 14.9417 10.9415C14.6806 11.2026 14.3667 11.3332 14.0001 11.3332H12.3001ZM6.00008 5.99984C5.26675 5.99984 4.63897 5.73873 4.11675 5.2165C3.59453 4.69428 3.33341 4.0665 3.33341 3.33317C3.33341 2.59984 3.59453 1.97206 4.11675 1.44984C4.63897 0.927615 5.26675 0.666504 6.00008 0.666504C6.73341 0.666504 7.36119 0.927615 7.88341 1.44984C8.40564 1.97206 8.66675 2.59984 8.66675 3.33317C8.66675 4.0665 8.40564 4.69428 7.88341 5.2165C7.36119 5.73873 6.73341 5.99984 6.00008 5.99984ZM12.6667 3.33317C12.6667 4.0665 12.4056 4.69428 11.8834 5.2165C11.3612 5.73873 10.7334 5.99984 10.0001 5.99984C9.87786 5.99984 9.7223 5.98595 9.53341 5.95817C9.34453 5.93039 9.18897 5.89984 9.06675 5.8665C9.36675 5.51095 9.5973 5.1165 9.75841 4.68317C9.91953 4.24984 10.0001 3.79984 10.0001 3.33317C10.0001 2.8665 9.91953 2.4165 9.75841 1.98317C9.5973 1.54984 9.36675 1.15539 9.06675 0.799837C9.2223 0.744282 9.37786 0.708171 9.53341 0.691504C9.68897 0.674837 9.84453 0.666504 10.0001 0.666504C10.7334 0.666504 11.3612 0.927615 11.8834 1.44984C12.4056 1.97206 12.6667 2.59984 12.6667 3.33317Z" fill="#F9F9F9"/>
</svg>
