<svg width="14" height="8" viewBox="0 0 14 8" fill="none" xmlns="http://www.w3.org/2000/svg">
<path d="M3.33336 7.33317C2.41114 7.33317 1.62503 7.00817 0.975031 6.35817C0.325031 5.70817 3.05176e-05 4.92206 3.05176e-05 3.99984C3.05176e-05 3.07761 0.325031 2.2915 0.975031 1.6415C1.62503 0.991504 2.41114 0.666504 3.33336 0.666504H5.33336C5.52225 0.666504 5.68059 0.730393 5.80836 0.858171C5.93614 0.985948 6.00003 1.14428 6.00003 1.33317C6.00003 1.52206 5.93614 1.68039 5.80836 1.80817C5.68059 1.93595 5.52225 1.99984 5.33336 1.99984H3.33336C2.77781 1.99984 2.30559 2.19428 1.9167 2.58317C1.52781 2.97206 1.33336 3.44428 1.33336 3.99984C1.33336 4.55539 1.52781 5.02761 1.9167 5.4165C2.30559 5.80539 2.77781 5.99984 3.33336 5.99984H5.33336C5.52225 5.99984 5.68059 6.06373 5.80836 6.1915C5.93614 6.31928 6.00003 6.47761 6.00003 6.6665C6.00003 6.85539 5.93614 7.01373 5.80836 7.1415C5.68059 7.26928 5.52225 7.33317 5.33336 7.33317H3.33336ZM4.6667 4.6665C4.47781 4.6665 4.31948 4.60261 4.1917 4.47484C4.06392 4.34706 4.00003 4.18873 4.00003 3.99984C4.00003 3.81095 4.06392 3.65261 4.1917 3.52484C4.31948 3.39706 4.47781 3.33317 4.6667 3.33317H8.6667C8.85559 3.33317 9.01392 3.39706 9.1417 3.52484C9.26948 3.65261 9.33336 3.81095 9.33336 3.99984C9.33336 4.18873 9.26948 4.34706 9.1417 4.47484C9.01392 4.60261 8.85559 4.6665 8.6667 4.6665H4.6667ZM8.00003 7.33317C7.81114 7.33317 7.65281 7.26928 7.52503 7.1415C7.39725 7.01373 7.33336 6.85539 7.33336 6.6665C7.33336 6.47761 7.39725 6.31928 7.52503 6.1915C7.65281 6.06373 7.81114 5.99984 8.00003 5.99984H10C10.5556 5.99984 11.0278 5.80539 11.4167 5.4165C11.8056 5.02761 12 4.55539 12 3.99984C12 3.44428 11.8056 2.97206 11.4167 2.58317C11.0278 2.19428 10.5556 1.99984 10 1.99984H8.00003C7.81114 1.99984 7.65281 1.93595 7.52503 1.80817C7.39725 1.68039 7.33336 1.52206 7.33336 1.33317C7.33336 1.14428 7.39725 0.985948 7.52503 0.858171C7.65281 0.730393 7.81114 0.666504 8.00003 0.666504H10C10.9223 0.666504 11.7084 0.991504 12.3584 1.6415C13.0084 2.2915 13.3334 3.07761 13.3334 3.99984C13.3334 4.92206 13.0084 5.70817 12.3584 6.35817C11.7084 7.00817 10.9223 7.33317 10 7.33317H8.00003Z" fill="#1A1D21"/>
</svg>
