<svg width="46" height="50" viewBox="0 0 46 50" fill="none" xmlns="http://www.w3.org/2000/svg">
<g filter="url(#filter0_d_3413_11581)">
<path d="M11 15.1609L11.0004 27.0534L13.0602 28.2427L13.0599 18.7287L15.1197 19.918L15.1198 24.675L17.1796 25.8643L17.1795 21.1073L19.2393 22.2967L19.2396 31.8107L21.2994 33L21.299 21.1075L11 15.1609Z" fill="#A2D2F6" stroke="#A2D2F6" stroke-width="0.1"/>
</g>
<g filter="url(#filter1_d_3413_11581)">
<path d="M11.1427 14.9459L21.4421 20.8919L31.7415 14.9459L29.6817 13.7567L21.4421 18.5135L19.3823 17.3243L23.502 14.9459L21.4421 13.7567L17.3224 16.1351L15.2625 14.9459L23.502 10.1892L21.4421 9L11.1427 14.9459Z" fill="#09395D" stroke="#09395D" stroke-width="0.1"/>
</g>
<g filter="url(#filter2_d_3413_11581)">
<path d="M31.8367 15.161L31.8363 27.0535L21.5373 33.0001L21.5377 21.1075L23.5975 19.9182L23.5972 29.4322L29.7766 25.8643L29.7769 16.3503L31.8367 15.161Z" fill="#168FE9" stroke="#168FE9" stroke-width="0.1"/>
</g>
<defs>
<filter id="filter0_d_3413_11581" x="0.956696" y="7.08594" width="34.386" height="41.989" filterUnits="userSpaceOnUse" color-interpolation-filters="sRGB">
<feFlood flood-opacity="0" result="BackgroundImageFix"/>
<feColorMatrix in="SourceAlpha" type="matrix" values="0 0 0 0 0 0 0 0 0 0 0 0 0 0 0 0 0 0 127 0" result="hardAlpha"/>
<feOffset dx="2" dy="4"/>
<feGaussianBlur stdDeviation="6"/>
<feComposite in2="hardAlpha" operator="out"/>
<feColorMatrix type="matrix" values="0 0 0 0 0 0 0 0 0 0 0 0 0 0 0 0 0 0 0.32 0"/>
<feBlend mode="normal" in2="BackgroundImageFix" result="effect1_dropShadow_3413_11581"/>
<feBlend mode="normal" in="SourceGraphic" in2="effect1_dropShadow_3413_11581" result="shape"/>
</filter>
<filter id="filter1_d_3413_11581" x="1.05612" y="0.949951" width="44.772" height="35.9919" filterUnits="userSpaceOnUse" color-interpolation-filters="sRGB">
<feFlood flood-opacity="0" result="BackgroundImageFix"/>
<feColorMatrix in="SourceAlpha" type="matrix" values="0 0 0 0 0 0 0 0 0 0 0 0 0 0 0 0 0 0 127 0" result="hardAlpha"/>
<feOffset dx="2" dy="4"/>
<feGaussianBlur stdDeviation="6"/>
<feComposite in2="hardAlpha" operator="out"/>
<feColorMatrix type="matrix" values="0 0 0 0 0 0 0 0 0 0 0 0 0 0 0 0 0 0 0.32 0"/>
<feBlend mode="normal" in2="BackgroundImageFix" result="effect1_dropShadow_3413_11581"/>
<feBlend mode="normal" in="SourceGraphic" in2="effect1_dropShadow_3413_11581" result="shape"/>
</filter>
<filter id="filter2_d_3413_11581" x="11.494" y="7.08594" width="34.386" height="41.9891" filterUnits="userSpaceOnUse" color-interpolation-filters="sRGB">
<feFlood flood-opacity="0" result="BackgroundImageFix"/>
<feColorMatrix in="SourceAlpha" type="matrix" values="0 0 0 0 0 0 0 0 0 0 0 0 0 0 0 0 0 0 127 0" result="hardAlpha"/>
<feOffset dx="2" dy="4"/>
<feGaussianBlur stdDeviation="6"/>
<feComposite in2="hardAlpha" operator="out"/>
<feColorMatrix type="matrix" values="0 0 0 0 0 0 0 0 0 0 0 0 0 0 0 0 0 0 0.32 0"/>
<feBlend mode="normal" in2="BackgroundImageFix" result="effect1_dropShadow_3413_11581"/>
<feBlend mode="normal" in="SourceGraphic" in2="effect1_dropShadow_3413_11581" result="shape"/>
</filter>
</defs>
</svg>
