<svg width="18" height="18" viewBox="0 0 18 18" fill="none" xmlns="http://www.w3.org/2000/svg">
<path d="M11.35 17.775L6 15.9L1.35 17.7C1.18333 17.7667 1.02083 17.7875 0.8625 17.7625C0.704167 17.7375 0.558333 17.6833 0.425 17.6C0.291667 17.5167 0.1875 17.4042 0.1125 17.2625C0.0375 17.1208 0 16.9583 0 16.775V2.75C0 2.53333 0.0625 2.34167 0.1875 2.175C0.3125 2.00833 0.483333 1.88333 0.7 1.8L5.35 0.225C5.45 0.191667 5.55417 0.166667 5.6625 0.15C5.77083 0.133333 5.88333 0.125 6 0.125C6.11667 0.125 6.22917 0.133333 6.3375 0.15C6.44583 0.166667 6.55 0.191667 6.65 0.225L12 2.1L16.65 0.3C16.8167 0.233333 16.9792 0.2125 17.1375 0.2375C17.2958 0.2625 17.4417 0.316667 17.575 0.4C17.7083 0.483333 17.8125 0.595833 17.8875 0.7375C17.9625 0.879167 18 1.04167 18 1.225V15.25C18 15.4667 17.9375 15.6583 17.8125 15.825C17.6875 15.9917 17.5167 16.1167 17.3 16.2L12.65 17.775C12.55 17.8083 12.4458 17.8333 12.3375 17.85C12.2292 17.8667 12.1167 17.875 12 17.875C11.8833 17.875 11.7708 17.8667 11.6625 17.85C11.5542 17.8333 11.45 17.8083 11.35 17.775ZM11 15.55V3.85L7 2.45V14.15L11 15.55Z" fill="#F9F9F9"/>
</svg>
