<svg width="16" height="16" viewBox="0 0 16 16" fill="none" xmlns="http://www.w3.org/2000/svg">
<mask id="mask0_297_1688" style="mask-type:alpha" maskUnits="userSpaceOnUse" x="0" y="0" width="16" height="16">
<rect width="16" height="16" fill="#D9D9D9"/>
</mask>
<g mask="url(#mask0_297_1688)">
<path d="M3.33341 12.6668C3.14453 12.6668 2.98619 12.6029 2.85841 12.4752C2.73064 12.3474 2.66675 12.1891 2.66675 12.0002C2.66675 11.8113 2.73064 11.6529 2.85841 11.5252C2.98619 11.3974 3.14453 11.3335 3.33341 11.3335H4.00008V6.66683C4.00008 5.74461 4.27786 4.92516 4.83341 4.2085C5.38897 3.49183 6.11119 3.02239 7.00008 2.80016V2.3335C7.00008 2.05572 7.0973 1.81961 7.29175 1.62516C7.48619 1.43072 7.7223 1.3335 8.00008 1.3335C8.27786 1.3335 8.51397 1.43072 8.70841 1.62516C8.90286 1.81961 9.00008 2.05572 9.00008 2.3335V2.80016C9.88897 3.02239 10.6112 3.49183 11.1667 4.2085C11.7223 4.92516 12.0001 5.74461 12.0001 6.66683V11.3335H12.6667C12.8556 11.3335 13.014 11.3974 13.1417 11.5252C13.2695 11.6529 13.3334 11.8113 13.3334 12.0002C13.3334 12.1891 13.2695 12.3474 13.1417 12.4752C13.014 12.6029 12.8556 12.6668 12.6667 12.6668H3.33341ZM8.00008 14.6668C7.63341 14.6668 7.31953 14.5363 7.05841 14.2752C6.7973 14.0141 6.66675 13.7002 6.66675 13.3335H9.33341C9.33341 13.7002 9.20286 14.0141 8.94175 14.2752C8.68064 14.5363 8.36675 14.6668 8.00008 14.6668Z" fill="#F9F9F9"/>
</g>
</svg>
