<svg width="12" height="14" viewBox="0 0 12 14" fill="none" xmlns="http://www.w3.org/2000/svg">
<path d="M10 13.6666C9.44444 13.6666 8.97222 13.4721 8.58333 13.0833C8.19444 12.6944 8 12.2221 8 11.6666C8 11.5888 8.00556 11.5083 8.01667 11.4249C8.02778 11.3416 8.04445 11.2666 8.06667 11.1999L3.36667 8.46659C3.17778 8.63325 2.96667 8.76381 2.73333 8.85825C2.5 8.9527 2.25556 8.99992 2 8.99992C1.44444 8.99992 0.972222 8.80547 0.583333 8.41659C0.194444 8.0277 0 7.55547 0 6.99992C0 6.44436 0.194444 5.97214 0.583333 5.58325C0.972222 5.19436 1.44444 4.99992 2 4.99992C2.25556 4.99992 2.5 5.04714 2.73333 5.14159C2.96667 5.23603 3.17778 5.36659 3.36667 5.53325L8.06667 2.79992C8.04445 2.73325 8.02778 2.65825 8.01667 2.57492C8.00556 2.49159 8 2.41103 8 2.33325C8 1.7777 8.19444 1.30547 8.58333 0.916585C8.97222 0.527696 9.44444 0.333252 10 0.333252C10.5556 0.333252 11.0278 0.527696 11.4167 0.916585C11.8056 1.30547 12 1.7777 12 2.33325C12 2.88881 11.8056 3.36103 11.4167 3.74992C11.0278 4.13881 10.5556 4.33325 10 4.33325C9.74444 4.33325 9.5 4.28603 9.26667 4.19159C9.03333 4.09714 8.82222 3.96659 8.63333 3.79992L3.93333 6.53325C3.95556 6.59992 3.97222 6.67492 3.98333 6.75825C3.99444 6.84159 4 6.92214 4 6.99992C4 7.0777 3.99444 7.15825 3.98333 7.24159C3.97222 7.32492 3.95556 7.39992 3.93333 7.46659L8.63333 10.1999C8.82222 10.0333 9.03333 9.9027 9.26667 9.80825C9.5 9.71381 9.74444 9.66659 10 9.66659C10.5556 9.66659 11.0278 9.86103 11.4167 10.2499C11.8056 10.6388 12 11.111 12 11.6666C12 12.2221 11.8056 12.6944 11.4167 13.0833C11.0278 13.4721 10.5556 13.6666 10 13.6666Z" fill="#1A1D21"/>
</svg>
