<svg width="19" height="20" viewBox="0 0 19 20" fill="none" xmlns="http://www.w3.org/2000/svg">
<path d="M15.5 20C14.6667 20 13.9583 19.7083 13.375 19.125C12.7917 18.5417 12.5 17.8333 12.5 17C12.5 16.8833 12.5083 16.7625 12.525 16.6375C12.5417 16.5125 12.5667 16.4 12.6 16.3L5.55 12.2C5.26667 12.45 4.95 12.6458 4.6 12.7875C4.25 12.9292 3.88333 13 3.5 13C2.66667 13 1.95833 12.7083 1.375 12.125C0.791667 11.5417 0.5 10.8333 0.5 10C0.5 9.16667 0.791667 8.45833 1.375 7.875C1.95833 7.29167 2.66667 7 3.5 7C3.88333 7 4.25 7.07083 4.6 7.2125C4.95 7.35417 5.26667 7.55 5.55 7.8L12.6 3.7C12.5667 3.6 12.5417 3.4875 12.525 3.3625C12.5083 3.2375 12.5 3.11667 12.5 3C12.5 2.16667 12.7917 1.45833 13.375 0.875C13.9583 0.291667 14.6667 0 15.5 0C16.3333 0 17.0417 0.291667 17.625 0.875C18.2083 1.45833 18.5 2.16667 18.5 3C18.5 3.83333 18.2083 4.54167 17.625 5.125C17.0417 5.70833 16.3333 6 15.5 6C15.1167 6 14.75 5.92917 14.4 5.7875C14.05 5.64583 13.7333 5.45 13.45 5.2L6.4 9.3C6.43333 9.4 6.45833 9.5125 6.475 9.6375C6.49167 9.7625 6.5 9.88333 6.5 10C6.5 10.1167 6.49167 10.2375 6.475 10.3625C6.45833 10.4875 6.43333 10.6 6.4 10.7L13.45 14.8C13.7333 14.55 14.05 14.3542 14.4 14.2125C14.75 14.0708 15.1167 14 15.5 14C16.3333 14 17.0417 14.2917 17.625 14.875C18.2083 15.4583 18.5 16.1667 18.5 17C18.5 17.8333 18.2083 18.5417 17.625 19.125C17.0417 19.7083 16.3333 20 15.5 20Z" fill="#F9F9F9"/>
</svg>
