<svg width="17" height="16" viewBox="0 0 17 16" fill="none" xmlns="http://www.w3.org/2000/svg">
<g clip-path="url(#clip0_268_1933)">
<path d="M8.66666 16C13.0849 16 16.6667 12.4183 16.6667 8C16.6667 3.58172 13.0849 0 8.66666 0C4.24838 0 0.666656 3.58172 0.666656 8C0.666656 12.4183 4.24838 16 8.66666 16Z" fill="url(#paint0_linear_268_1933)"/>
<path fill-rule="evenodd" clip-rule="evenodd" d="M4.28791 7.91547C6.62008 6.89938 8.17522 6.22952 8.95333 5.90587C11.175 4.9818 11.6367 4.82128 11.9376 4.81597C12.0037 4.81481 12.1517 4.83121 12.2476 4.90899C12.3285 4.97466 12.3508 5.06337 12.3614 5.12563C12.3721 5.1879 12.3853 5.32974 12.3748 5.44057C12.2544 6.70556 11.7335 9.77535 11.4684 11.1922C11.3563 11.7917 11.1355 11.9927 10.9217 12.0123C10.4571 12.0551 10.1044 11.7053 9.65439 11.4104C8.95029 10.9488 8.55252 10.6615 7.86906 10.2111C7.07921 9.69061 7.59124 9.40454 8.04137 8.93701C8.15917 8.81466 10.2061 6.95282 10.2457 6.78392C10.2507 6.7628 10.2553 6.68406 10.2085 6.64248C10.1617 6.60091 10.0927 6.61512 10.0429 6.62643C9.97224 6.64246 8.84742 7.38592 6.66841 8.85681C6.34914 9.07605 6.05995 9.18287 5.80084 9.17727C5.5152 9.1711 4.96574 9.01577 4.55728 8.88299C4.05628 8.72014 3.65809 8.63403 3.69276 8.35745C3.71082 8.2134 3.90921 8.06607 4.28791 7.91547Z" fill="white"/>
</g>
<defs>
<linearGradient id="paint0_linear_268_1933" x1="8.66666" y1="0" x2="8.66666" y2="15.8813" gradientUnits="userSpaceOnUse">
<stop stop-color="#2AABEE"/>
<stop offset="1" stop-color="#229ED9"/>
</linearGradient>
<clipPath id="clip0_268_1933">
<rect width="16" height="16" fill="white" transform="translate(0.666656)"/>
</clipPath>
</defs>
</svg>
